# xmcd
#
# Track frame offsets:
#	150
#	18751
#	39108
#	55419
#	75397
#	92300
#	108510
#	122059
#	141824
#	162812
#	180533
#	197376
#	223480
#	242045
#
# Disc length: 3459
#
# Revision: 1
# Processed by: cddbd v1.5.1PL0 Copyright (c) Steve Scherf et al.
# Submitted via: ExactAudioCopy v0.90b3
# Normalized: r0:DSETVAR1
#
DISCID=ac0d810e
DTITLE=Various Artist - Swingin' The Blues volume IV
DYEAR=1900
DGENRE=Blues
TTITLE0=Terry Evans - Money in Your Pocket (118 BPM)
TTITLE1=Kenny Neal - The Truth Hurts (122 BPM)
TTITLE2=Dynamic Breakers - Pride and Joy (122 BPM)
TTITLE3=General Johnson and the Chairmen of the Board - If It Ain't One Thing It's Another (93 BPM)
TTITLE4=Billy Branch and the Sons of the Blues - Where's My Money (127 BPM)
TTITLE5=Mudpuppy - Too Poor (108 BPM)
TTITLE6=Lloyd Jones Struggle - You Ought to Know Better (105 BPM)
TTITLE7=Johnnie Taylor - Cheaper to Keep Her (120 BPM)
TTITLE8=Lloyd Jones Struggle - Toughen Up (129 BPM)
TTITLE9=Fabulous Kays - Another Day, Another Dollar (126 BPM)
TTITLE10=Solomon Burke - Street Walkin' Woman (113 BPM)
TTITLE11=Poonanny - I Ain't Beggin' I'm Buyin' (120 BPM)
TTITLE12=Linda Hornbuckle with No Delay - As Long as I'm Moving (117 BPM)
TTITLE13=Luther "Guitar Jr." Johnson and the Magic Rockers - Meet Me With Your Black Drawers On (130 BPM)
EXTD=
EXTT0=
EXTT1=
EXTT2=
EXTT3=
EXTT4=
EXTT5=
EXTT6=
EXTT7=
EXTT8=
EXTT9=
EXTT10=
EXTT11=
EXTT12=
EXTT13=
PLAYORDER=
